<svg width="15" height="10" viewBox="0 0 15 10" fill="none" xmlns="http://www.w3.org/2000/svg">
<path fill-rule="evenodd" clip-rule="evenodd" d="M15 5C15 4.70083 14.8341 4.505 14.5023 4.11167C13.2879 2.675 10.6095 0 7.5 0C4.39054 0 1.71209 2.675 0.497719 4.11167C0.165906 4.505 0 4.70083 0 5C0 5.29917 0.165906 5.495 0.497719 5.88833C1.71209 7.325 4.39054 10 7.5 10C10.6095 10 13.2879 7.325 14.5023 5.88833C14.8341 5.495 15 5.29917 15 5ZM7.5 7.5C8.18043 7.5 8.83299 7.23661 9.31413 6.76777C9.79526 6.29893 10.0656 5.66304 10.0656 5C10.0656 4.33696 9.79526 3.70107 9.31413 3.23223C8.83299 2.76339 8.18043 2.5 7.5 2.5C6.81957 2.5 6.16701 2.76339 5.68587 3.23223C5.20473 3.70107 4.93444 4.33696 4.93444 5C4.93444 5.66304 5.20473 6.29893 5.68587 6.76777C6.16701 7.23661 6.81957 7.5 7.5 7.5Z" fill="white"/>
</svg>
