<svg width="14" height="14" viewBox="0 0 14 14" fill="none" xmlns="http://www.w3.org/2000/svg">
<path d="M10.1538 6.2051H3.38455V3.38458H10.1538M9.30763 9.58971C9.08322 9.58971 8.86799 9.50056 8.70931 9.34188C8.55062 9.1832 8.46148 8.96797 8.46148 8.74356C8.46148 8.51915 8.55062 8.30392 8.70931 8.14524C8.86799 7.98655 9.08322 7.89741 9.30763 7.8974C9.53204 7.89741 9.74727 7.98655 9.90595 8.14524C10.0646 8.30392 10.1538 8.51915 10.1538 8.74356C10.1538 8.96797 10.0646 9.1832 9.90595 9.34188C9.74727 9.50056 9.53204 9.58971 9.30763 9.58971ZM4.23071 9.58971C4.00629 9.58971 3.79107 9.50056 3.63239 9.34188C3.4737 9.1832 3.38455 8.96797 3.38455 8.74356C3.38455 8.51915 3.4737 8.30392 3.63239 8.14524C3.79107 7.98655 4.00629 7.89741 4.23071 7.8974C4.45512 7.89741 4.67034 7.98655 4.82903 8.14524C4.98771 8.30392 5.07686 8.51915 5.07686 8.74356C5.07686 8.96797 4.98771 9.1832 4.82903 9.34188C4.67034 9.50056 4.45512 9.58971 4.23071 9.58971ZM2.25635 9.02561C2.25635 9.52202 2.47635 9.96766 2.82045 10.2779V11.282C2.82045 11.4316 2.87988 11.5751 2.98567 11.6809C3.09146 11.7867 3.23494 11.8461 3.38455 11.8461H3.94866C4.09826 11.8461 4.24175 11.7867 4.34754 11.6809C4.45333 11.5751 4.51276 11.4316 4.51276 11.282V10.7179H9.02558V11.282C9.02558 11.4316 9.08501 11.5751 9.1908 11.6809C9.29659 11.7867 9.44007 11.8461 9.58968 11.8461H10.1538C10.3034 11.8461 10.4469 11.7867 10.5527 11.6809C10.6585 11.5751 10.7179 11.4316 10.7179 11.282V10.2779C11.062 9.96766 11.282 9.52202 11.282 9.02561V3.38458C11.282 1.41023 9.2625 1.12817 6.76917 1.12817C4.27583 1.12817 2.25635 1.41023 2.25635 3.38458V9.02561Z" fill="#4B1077"/>
</svg>
