<svg width="15" height="15" viewBox="0 0 15 15" fill="none" xmlns="http://www.w3.org/2000/svg">
<path d="M10.625 7.5C8.9 7.5 7.5 8.9 7.5 10.625C7.5 12.35 8.9 13.75 10.625 13.75C12.35 13.75 13.75 12.35 13.75 10.625C13.75 8.9 12.35 7.5 10.625 7.5ZM11.6562 12.0938L10.3125 10.75V8.75H10.9375V10.4938L12.0938 11.65L11.6562 12.0938ZM12.5 1.875H9.2625C9 1.15 8.3125 0.625 7.5 0.625C6.6875 0.625 6 1.15 5.7375 1.875H2.5V13.75H7.56875C7.19852 13.3915 6.89764 12.9677 6.68125 12.5H3.75V3.125H5V5H10V3.125H11.25V6.3C11.6938 6.3625 12.1125 6.49375 12.5 6.675V1.875ZM7.5 3.125C7.15625 3.125 6.875 2.84375 6.875 2.5C6.875 2.15625 7.15625 1.875 7.5 1.875C7.84375 1.875 8.125 2.15625 8.125 2.5C8.125 2.84375 7.84375 3.125 7.5 3.125Z" fill="#4B1077"/>
</svg>
